IKResults
version=1
nRows=4
nColumns=63
inDegrees=yes

Units are S.I. units (second, meters, Newtons, ...)
If the header above contains a line with 'inDegrees', this indicates whether rotational values are in degrees (yes) or radians (no).

endheader
time	pelvis_tilt	pelvis_list	pelvis_rotation	pelvis_tx	pelvis_ty	pelvis_tz	hip_flexion_r	hip_adduction_r	hip_rotation_r	knee_angle_r	knee_angle_r_beta	ankle_angle_r	subtalar_angle_r	mtp_angle_r	hip_flexion_l	hip_adduction_l	hip_rotation_l	knee_angle_l	knee_angle_l_beta	ankle_angle_l	subtalar_angle_l	mtp_angle_l	L5_S1_Flex_Ext	L5_S1_Lat_Bending	L5_S1_axial_rotation	L4_L5_Flex_Ext	L4_L5_Lat_Bending	L4_L5_axial_rotation	L3_L4_Flex_Ext	L3_L4_Lat_Bending	L3_L4_axial_rotation	L2_L3_Flex_Ext	L2_L3_Lat_Bending	L2_L3_axial_rotation	L1_L2_Flex_Ext	L1_L2_Lat_Bending	L1_L2_axial_rotation	L1_T12_Flex_Ext	L1_T12_Lat_Bending	L1_T12_axial_rotation	Abs_r3	Abs_r2	Abs_r1	Abs_t1	Abs_t2	neck_flexion	neck_bending	neck_rotation	arm_flex_r	arm_add_r	arm_rot_r	elbow_flex_r	pro_sup_r	wrist_flex_r	wrist_dev_r	arm_flex_l	arm_add_l	arm_rot_l	elbow_flex_l	pro_sup_l	wrist_flex_l	wrist_dev_l
      4.03333333	     63.61716034	      0.85453454	      8.94521074	     -0.64575934	      0.66438744	     -0.35553549	      4.94809050	    -27.49656372	    -19.00465701	     87.85328451	      1.53332907	     20.08358745	      4.31015133	      0.00000000	     14.97353672	    -12.65427431	     -1.96481608	     93.20165458	      1.62667574	     18.16962484	    -17.69221053	      0.00000000	     -7.66790845	     -0.17598717	     -2.42414214	    -14.24007279	     -0.23406293	     -2.57565103	    -12.59760680	     -0.42789520	     -2.57565103	     -8.76365257	     -0.42789520	     -2.12112437	     -7.12041979	     -0.35887303	     -1.96961549	     -4.38144289	     -0.27260412	     -1.81810661	    -54.77110330	     -1.99080204	    -13.48235135	      0.00000000	      0.00000000	     25.58525340	      3.33767327	     -6.54696553	     17.82935065	     -6.80279757	      0.68227301	     35.03405596	     89.99559364	      0.00000000	      0.00000000	     22.98183671	    -19.63002863	     24.29670468	     32.12874263	     89.99559364	      0.00000000	      0.00000000
      4.06666667	     63.61726257	      0.84787013	      8.94770394	     -0.64564616	      0.66434003	     -0.35558821	      4.94912685	    -27.49641791	    -19.00401245	     87.85456986	      1.53335151	     20.08219121	      4.30819675	      0.00000000	     14.97244883	    -12.65513521	     -1.96477019	     93.20228978	      1.62668683	     18.17086249	    -17.67921782	      0.00000000	     -7.66833979	     -0.17613147	     -2.42452028	    -14.24087382	     -0.23425485	     -2.57605279	    -12.59831543	     -0.42824604	     -2.57605279	     -8.76414554	     -0.42824604	     -2.12145524	     -7.12082033	     -0.35916728	     -1.96992272	     -4.38168935	     -0.27282764	     -1.81839021	    -54.77418426	     -1.99243436	    -13.48445442	      0.00000000	      0.00000000	     25.57302371	      3.33759309	     -6.54665143	     17.82822574	     -6.80455951	      0.68258671	     35.03392835	     89.99559364	      0.00000000	      0.00000000	     22.98208398	    -19.63099054	     24.29798459	     32.12901237	     89.99559364	      0.00000000	      0.00000000
      4.10000000	     63.40764140	      0.80411903	      9.02411098	     -0.64501555	      0.66393524	     -0.35570152	      5.29198155	    -27.49382462	    -19.02004073	     88.07080997	      1.53712561	     19.73896651	      3.67512117	      0.00000000	     15.27051291	    -12.61483805	     -1.83497266	     93.32541088	      1.62883570	     18.27455355	    -17.74338569	      0.00000000	     -7.61754928	     -0.17123056	     -2.45356434	    -14.14655077	     -0.22773664	     -2.60691212	    -12.51487171	     -0.41632997	     -2.60691212	     -8.70609707	     -0.41632997	     -2.14686880	     -7.07365626	     -0.34917335	     -1.99352103	     -4.35266766	     -0.26523613	     -1.84017326	    -54.41139276	     -1.93699430	    -13.64598882	      0.00000000	      0.00000000	     24.85936011	      3.32988124	     -6.11618559	     17.98069774	     -6.96544901	      1.65296199	     34.56715205	     89.99559364	      0.00000000	      0.00000000	     23.08477583	    -19.88438084	     25.98118069	     31.97074721	     89.99559364	      0.00000000	      0.00000000
      4.13333333	     63.40784550	      0.80110116	      9.02757412	     -0.64490378	      0.66391834	     -0.35572032	      5.29201854	    -27.49414075	    -19.01929871	     88.07035891	      1.53711774	     19.73845034	      3.67428621	      0.00000000	     15.27047284	    -12.61569078	     -1.83635990	     93.32515849	      1.62883129	     18.27522691	    -17.73268947	      0.00000000	     -7.61777652	     -0.17122148	     -2.45357396	    -14.14697278	     -0.22772457	     -2.60692234	    -12.51524505	     -0.41630790	     -2.60692234	     -8.70635679	     -0.41630790	     -2.14687722	     -7.07386728	     -0.34915484	     -1.99352884	     -4.35279751	     -0.26522207	     -1.84018047	    -54.41301593	     -1.93689160	    -13.64604231	      0.00000000	      0.00000000	     24.85211467	      3.32991990	     -6.11625393	     17.98063172	     -6.96676603	      1.65269898	     34.56787055	     89.99559364	      0.00000000	      0.00000000	     23.08354503	    -19.88710515	     25.98118496	     31.97083859	     89.99559364	      0.00000000	      0.00000000
